HIERARCHY
ROOT root
{
	OFFSET	0	13.1	24.9
	CHANNELS 6  Xposition Yposition Zposition Xrotation Yrotation Zrotation
	JOINT spine_1
	{
		OFFSET	0	9.99999	0
		CHANNELS 3  Xrotation Yrotation Zrotation
		JOINT spine_2
		{
			OFFSET	0	112	-10
			CHANNELS 3  Xrotation Yrotation Zrotation
			JOINT spine_3
			{
				OFFSET	0	206.5	19.3
				CHANNELS 3  Xrotation Yrotation Zrotation
				JOINT spine_4
				{
					OFFSET	0	110.4	14.6
					CHANNELS 3  Xrotation Yrotation Zrotation
					JOINT neck_1
					{
						OFFSET	0	71.8	-50.3
						CHANNELS 3  Xrotation Yrotation Zrotation
						JOINT neck_2
						{
							OFFSET	0	86.2	-25.8
							CHANNELS 3  Xrotation Yrotation Zrotation
							JOINT head_ee
							{
								OFFSET	0	179.8	-8.7
								CHANNELS 3  Xrotation Yrotation Zrotation
								End Site
								{
									OFFSET	1	0	0
								}
							}
						}
					}
					JOINT left_clavicle
					{
						OFFSET	-43.2	22.4	-70.8
						CHANNELS 3  Xrotation Yrotation Zrotation
						JOINT left_shoulder
						{
							OFFSET	-93.9	-5.79999	48.7
							CHANNELS 3  Xrotation Yrotation Zrotation
							JOINT left_elbow
							{
								OFFSET	-291.4	-30.8	15.2
								CHANNELS 3  Xrotation Yrotation Zrotation
								JOINT left_lowarm_twist
								{
									OFFSET	-110.7	-3.89999	13.6
									CHANNELS 3  Xrotation Yrotation Zrotation
									JOINT left_hand
									{
										OFFSET	-110.7	-3.89999	13.6
										CHANNELS 3  Xrotation Yrotation Zrotation
										JOINT left_ee
										{
											OFFSET	-80.8	-5.10001	12.1
											CHANNELS 3  Xrotation Yrotation Zrotation
											End Site
											{
												OFFSET	1	0	0
											}
										}
									}
								}
							}
						}
					}
					JOINT right_clavicle
					{
						OFFSET	43.2	22.4	-70.8
						CHANNELS 3  Xrotation Yrotation Zrotation
						JOINT right_shoulder
						{
							OFFSET	93.9	-5.79999	48.7
							CHANNELS 3  Xrotation Yrotation Zrotation
							JOINT right_elbow
							{
								OFFSET	291.4	-30.8	15.2
								CHANNELS 3  Xrotation Yrotation Zrotation
								JOINT right_lowarm_twist
								{
									OFFSET	110.7	-3.89999	13.6
									CHANNELS 3  Xrotation Yrotation Zrotation
									JOINT right_hand
									{
										OFFSET	110.7	-3.89999	13.6
										CHANNELS 3  Xrotation Yrotation Zrotation
										JOINT right_ee
										{
											OFFSET	80.8	-5.10001	12.1
											CHANNELS 3  Xrotation Yrotation Zrotation
											End Site
											{
												OFFSET	1	0	0
											}
										}
									}
								}
							}
						}
					}
				}
			}
		}
	}
	JOINT left_hip
	{
		OFFSET	-82.8	-127.5	0.300001
		CHANNELS 3  Xrotation Yrotation Zrotation
		JOINT left_knee
		{
			OFFSET	-28.2	-396.7	2.2
			CHANNELS 3  Xrotation Yrotation Zrotation
			JOINT left_ankle
			{
				OFFSET	-11.7	-411.3	35.4
				CHANNELS 3  Xrotation Yrotation Zrotation
				JOINT left_toes
				{
					OFFSET	0	-60	-88.6
					CHANNELS 3  Xrotation Yrotation Zrotation
					JOINT left_foot_ee
					{
						OFFSET	-22.5	-16.5	-42.2
						CHANNELS 3  Xrotation Yrotation Zrotation
						End Site
						{
							OFFSET	1	0	0
						}
					}
				}
			}
		}
	}
	JOINT right_hip
	{
		OFFSET	82.8	-127.5	0.300001
		CHANNELS 3  Xrotation Yrotation Zrotation
		JOINT right_knee
		{
			OFFSET	28.2	-396.7	2.2
			CHANNELS 3  Xrotation Yrotation Zrotation
			JOINT right_ankle
			{
				OFFSET	11.7	-411.3	35.4
				CHANNELS 3  Xrotation Yrotation Zrotation
				JOINT right_toes
				{
					OFFSET	0	-60	-88.6
					CHANNELS 3  Xrotation Yrotation Zrotation
					JOINT right_foot_ee
					{
						OFFSET	22.5	-16.5	-42.2
						CHANNELS 3  Xrotation Yrotation Zrotation
						End Site
						{
							OFFSET	1	0	0
						}
					}
				}
			}
		}
	}
}
MOTION
Frames: 13
Frame Time: 0.02
1606.32 726.303 -1283.36 -7.26016 73.4433 4.99518 0.994149 -0.0626892 0.925885 0.994618 -0.121476 0.92002 0.992715 -0.296969 0.879209 0.991669 -0.154394 0.915072 3.19436 12.3449 1.00464 3.62964 20.664 1.89378 -0.0 0.0 -0.0 0.218381 17.6928 2.40645 4.23476 -43.8514 59.7587 1.14839 -29.6337 0.30379 3.72304 0.116217 -0.461259 -0.865299 24.2525 4.69301 -0.0 0.0 -0.0 10.6039 23.5128 -20.4693 -10.8828 12.8251 -63.4763 0.906976 24.1936 -0.194389 -20.2086 1.1319 -2.30949 1.07736 1.76536 -6.49308 0.0 0.0 0.0 14.2556 -14.7125 10.3665 -25.6417 0.186179 3.89782 42.8689 19.9534 -5.28389 -36.3835 0.0 0.0 -0.0 0.0 -0.0 12.9212 22.5426 0.664428 -53.6005 1.54999 -7.78378 37.8343 -19.8536 4.8202 0.351413 -0.0 -0.0 0.0 0.0 0.0 
1594.48 731.912 -1279.36 -4.64575 71.8061 2.50845 0.801515 -0.0218437 0.917359 0.80198 -0.0801709 0.91411 0.800784 -0.258247 0.880533 0.79972 -0.115948 0.910265 1.71253 11.3898 1.02282 2.03504 19.2203 2.04519 -0.0 0.0 -0.0 0.450995 16.323 2.62305 5.99186 -42.8944 59.1212 1.23844 -31.5274 0.349609 2.98332 0.0955185 -0.369036 -0.788905 24.1636 5.09208 -0.0 0.0 -0.0 10.274 23.4081 -19.7366 -13.0418 12.1895 -63.9075 0.765088 20.7568 -0.140124 -19.3921 1.07073 -2.22467 0.987957 1.58916 -5.96244 0.0 0.0 0.0 10.1739 -15.0498 10.1027 -19.8184 0.297756 3.01157 42.9166 21.0024 -5.31536 -39.7561 0.0 0.0 -0.0 0.0 -0.0 16.6407 19.951 0.418346 -51.8775 1.38959 -7.57227 32.4753 -23.122 4.34102 0.352785 -0.0 -0.0 0.0 0.0 0.0 
1586.04 733.997 -1275.04 -4.07448 71.7409 1.91961 0.670204 -0.010103 0.706982 0.670481 -0.0550684 0.704906 0.669863 -0.194068 0.6799 0.669228 -0.0842576 0.702016 0.401076 10.76 1.17535 0.64611 18.1785 2.32326 -0.0 0.0 -0.0 0.873319 15.2391 3.18532 8.29918 -43.2609 58.6803 1.28008 -32.3778 0.371642 2.33771 0.0764808 -0.288768 -0.811787 23.6539 4.75112 -0.0 0.0 -0.0 10.0746 23.2118 -19.307 -15.2762 11.3347 -64.0739 0.600913 16.5771 -0.0875416 -18.9594 1.03881 -2.17938 0.751302 0.694739 -4.73846 0.0 0.0 0.0 6.26183 -15.3753 11.1653 -13.3405 0.315527 2.01836 42.6576 22.7342 -5.3422 -40.0699 0.0 0.0 -0.0 0.0 -0.0 20.1022 19.8711 -0.966657 -50.7158 1.28508 -7.42702 29.3905 -24.0082 4.01368 0.773195 -0.0 -0.0 0.0 0.0 0.0 
1578.71 732.359 -1272.06 -2.53593 71.8599 -0.0278611 0.485199 0.0015752 0.733404 0.485497 -0.0450951 0.732018 0.485003 -0.191967 0.707838 0.484312 -0.077771 0.729271 -1.34599 10.5728 2.05029 -1.17366 17.3958 3.45065 -0.0 0.0 -0.0 1.28361 14.3498 3.76683 11.2497 -44.1275 57.9713 1.35254 -33.8207 0.411217 1.7801 0.0593096 -0.219612 -0.939902 21.3887 3.05808 -0.0 0.0 -0.0 10.1273 23.7146 -19.3788 -16.9679 10.683 -63.3952 0.29965 8.44339 -0.022119 -17.7735 0.953088 -2.05403 0.562029 0.476884 -3.55899 0.0 0.0 0.0 2.67742 -15.2702 11.7322 -5.89324 0.197392 0.882501 42.6442 25.6589 -5.43787 -39.508 0.0 0.0 -0.0 0.0 -0.0 22.4648 15.5081 -0.0635433 -49.1864 1.15205 -7.23267 26.5783 -25.1127 3.70427 0.94789 -0.0 -0.0 0.0 0.0 0.0 
1565.55 735.996 -1268.83 -1.02843 72.2742 -1.92318 0.455254 -0.0255849 0.914022 0.455715 -0.0836921 0.910542 0.454502 -0.26629 0.874749 0.453456 -0.124804 0.905823 -2.04994 10.5767 1.75145 -1.8916 17.7443 3.22096 -0.0 0.0 -0.0 2.1479 13.8494 5.13654 13.2808 -43.9689 57.1472 1.40312 -34.7998 0.439727 0.916199 0.0313792 -0.112806 -1.22209 17.9865 -0.103919 -0.0 0.0 -0.0 10.0785 23.6499 -19.2753 -18.9452 9.83161 -63.5763 0.176031 4.98374 -0.00766066 -16.9245 0.893332 -1.96323 0.475724 -1.83849 -3.93618 0.0 0.0 0.0 -0.479969 -14.6593 12.3949 -0.702897 0.0283038 0.104154 41.1725 26.467 -5.33052 -39.6215 0.0 0.0 -0.0 0.0 -0.0 23.8249 14.6084 0.445955 -47.0249 0.973044 -6.95219 23.5784 -25.8659 3.34721 0.140235 -0.0 -0.0 0.0 0.0 0.0 
1552.74 737.393 -1265.29 0.859227 73.647 -4.29223 0.168341 -0.156553 0.863725 0.168732 -0.211194 0.852014 0.165659 -0.3833 0.789696 0.164878 -0.253776 0.840316 -3.11641 9.86697 1.28636 -3.00189 16.9611 2.7728 -0.0 0.0 -0.0 3.06179 13.1954 6.60697 14.4658 -43.9872 56.0494 1.43902 -35.4809 0.46039 -0.440643 -0.0157339 0.0540743 -1.45225 16.2462 -2.2925 -0.0 0.0 -0.0 9.93138 23.2105 -18.9863 -21.7795 8.52677 -63.5296 0.161316 4.56899 -0.00643542 -16.3403 0.853001 -1.90024 0.37157 -3.5353 -3.93931 0.0 0.0 0.0 -2.98648 -14.0489 13.0388 3.72508 -0.171225 -0.545811 39.7684 26.9135 -5.21126 -39.8324 0.0 0.0 -0.0 0.0 -0.0 25.5043 13.0412 1.23736 -42.108 0.606297 -6.29083 21.8247 -25.8915 3.12261 -1.03375 0.0 0.0 0.0 0.0 0.0 
1538.32 730.318 -1264.2 2.32572 73.5341 -5.71392 0.144938 -0.11642 0.967619 0.145441 -0.177754 0.958251 0.142588 -0.372983 0.900407 0.141528 -0.226107 0.948008 -2.84326 9.60648 0.346944 -2.71432 17.1837 1.72278 -0.0 0.0 -0.0 4.01562 12.6911 8.18227 17.1942 -44.9183 55.385 1.52069 -36.9885 0.508673 -2.02494 -0.0757339 0.247474 -1.88044 16.2065 -4.94268 -0.0 0.0 -0.0 9.48985 22.4342 -18.0686 -23.5837 6.27209 -64.246 0.161967 4.58734 -0.0064873 -16.3569 0.85414 -1.90204 0.406345 -5.90828 -5.13158 0.0 0.0 0.0 -5.46244 -14.2837 13.6209 4.63786 -0.21858 -0.677807 41.8183 25.448 -5.35458 -38.3592 0.0 0.0 -0.0 0.0 -0.0 25.7226 13.0654 1.06339 -37.2153 0.299177 -5.60448 21.104 -22.4287 2.97305 -2.44977 0.0 0.0 0.0 0.0 0.0 
1521.11 728.882 -1266.3 3.41782 73.2866 -6.31111 -0.0971276 -0.0703693 0.767868 -0.0968074 -0.119087 0.761834 -0.0982891 -0.277798 0.719308 -0.0989753 -0.160714 0.754152 -1.44392 9.69562 -0.189412 -1.25905 17.612 0.984086 -0.0 0.0 -0.0 4.80471 12.6242 9.51003 19.5063 -44.9451 55.2716 1.57555 -37.9687 0.542056 -4.30039 -0.171227 0.52222 -2.44412 15.7135 -8.68059 -0.0 0.0 -0.0 9.18566 20.841 -17.5231 -25.6244 6.16929 -64.2793 0.182879 5.1766 -0.00826711 -16.8474 0.887972 -1.95494 0.411174 -9.15734 -6.45806 0.0 0.0 0.0 -6.61927 -14.1998 13.3521 4.94206 -0.234829 -0.72163 41.8411 25.3672 -5.35386 -37.6121 0.0 0.0 -0.0 0.0 -0.0 25.9327 14.5603 -0.142142 -32.3893 0.0548432 -4.90474 20.0649 -16.2683 2.77393 -3.61148 0.0 0.0 0.0 0.0 0.0 
1507.52 727.269 -1269.05 3.81675 72.6912 -6.54006 -0.217864 0.160139 0.753807 -0.217555 0.111849 0.762469 -0.215864 -0.0537983 0.768748 -0.216682 0.0682827 0.767597 -1.19608 9.65217 -0.695569 -0.989821 17.9104 0.406588 -0.0 0.0 -0.0 5.77582 12.612 11.1575 22.0291 -45.1987 55.0133 1.63755 -39.0457 0.580656 -5.92231 -0.245929 0.71567 -2.70579 15.2907 -10.5412 -0.0 0.0 -0.0 8.78362 19.0519 -16.7654 -27.3205 5.13742 -64.5603 0.182193 5.15729 -0.00820532 -16.912 0.892464 -1.96189 0.445425 -11.1388 -7.45373 0.0 0.0 0.0 -8.46748 -14.3813 12.9129 5.30691 -0.254625 -0.774079 41.503 24.8684 -5.3055 -37.167 0.0 0.0 -0.0 0.0 -0.0 27.4802 13.4042 -0.468411 -27.4482 -0.133316 -4.17002 19.5856 -12.7748 2.69208 -4.58467 0.0 0.0 0.0 0.0 0.0 
1499.95 728.996 -1268.24 0.949978 73.1164 -3.6661 -0.368777 0.023565 0.761346 -0.368455 -0.0249277 0.761303 -0.368624 -0.189141 0.737856 -0.369377 -0.0702402 0.758466 -0.347326 9.52932 -1.3836 -0.0938032 18.156 -0.463908 -0.0 0.0 -0.0 6.43864 12.8196 12.2825 24.676 -44.4975 55.3946 1.86241 -42.6899 0.727861 -7.46455 -0.322024 0.897615 -3.14347 15.0242 -13.4624 -0.0 0.0 -0.0 8.62595 18.1885 -16.4766 -28.3797 4.48389 -64.8552 0.247847 6.9997 -0.0151584 -16.8383 0.887341 -1.95396 0.439757 -13.589 -8.35826 0.0 0.0 0.0 -8.36551 -14.7367 12.1485 6.96201 -0.34862 -1.01041 41.2455 25.2114 -5.29309 -36.9679 0.0 0.0 -0.0 0.0 -0.0 28.3863 13.4321 -1.26329 -17.1232 -0.318793 -2.59862 16.1036 -10.1115 2.23891 -5.75725 0.0 0.0 0.0 0.0 0.0 
1491.64 728.805 -1271.47 -0.255764 73.8448 -2.30397 -0.416513 0.0231184 0.854591 -0.416107 -0.0313063 0.854331 -0.416366 -0.2162 0.827117 -0.417311 -0.0828636 0.850879 0.201542 9.1173 -2.23866 0.4914 18.0634 -1.5095 -0.0 0.0 -0.0 7.00725 13.2477 13.235 26.4881 -43.9513 55.2924 2.04125 -45.3131 0.852129 -9.38038 -0.423345 1.12071 -3.5541 14.0007 -16.7005 -0.0 0.0 -0.0 8.49897 17.2366 -16.2587 -29.1669 4.0513 -65.4704 0.304684 8.58316 -0.0228643 -16.4548 0.860851 -1.91261 0.547558 -16.4986 -10.1217 0.0 0.0 0.0 -8.83429 -15.0364 11.1817 7.5896 -0.386046 -1.09932 41.0075 25.639 -5.2854 -37.1434 0.0 0.0 -0.0 0.0 -0.0 28.523 13.717 -1.73664 -9.09811 -0.266332 -1.36941 7.90244 -8.86107 1.13128 -7.9699 0.0 0.0 0.0 0.0 0.0 
1478.64 721.734 -1275.72 -0.663718 74.1122 -1.27285 -0.444012 -0.000112458 0.697687 -0.443743 -0.0445068 0.696266 -0.444152 -0.19506 0.669866 -0.444767 -0.0868216 0.692264 0.679296 8.87096 -2.76073 0.999102 18.0125 -2.1719 -0.0 0.0 -0.0 7.28762 14.5294 13.6321 27.9883 -43.0531 55.095 2.31155 -48.8622 1.05019 -10.3215 -0.475846 1.22906 -3.94166 13.9849 -19.2711 -0.0 0.0 -0.0 8.0634 16.1627 -15.3702 -29.9162 3.37469 -66.0759 0.32801 9.22933 -0.0264756 -16.2444 0.846438 -1.88986 0.497012 -19.2942 -10.8211 0.0 0.0 0.0 -9.44882 -15.334 10.3288 6.0727 -0.297264 -0.883757 42.2332 23.0609 -5.31425 -36.4025 0.0 0.0 -0.0 0.0 -0.0 28.7651 13.9407 -2.29496 -2.33113 -0.0889384 -0.346671 3.1598 -6.97369 0.458826 -8.69572 0.0 0.0 0.0 0.0 0.0 
1468.31 721.607 -1282.08 -2.18664 75.042 0.134187 -0.495164 -0.0052305 0.807747 -0.494803 -0.0566172 0.805777 -0.495421 -0.231424 0.773905 -0.496241 -0.1063 0.800739 1.13005 8.89726 -2.14097 1.43205 17.5108 -1.55368 -0.0 0.0 -0.0 7.32089 15.7638 13.6001 30.1886 -41.4975 56.8003 2.56109 -51.7458 1.24226 -10.7498 -0.500323 1.27807 -4.37342 13.4567 -22.5183 -0.0 0.0 -0.0 7.99707 15.4395 -15.2675 -30.203 3.21951 -67.2464 0.371728 10.4339 -0.0339411 -15.8776 0.821513 -1.85007 0.561224 -21.2417 -11.8961 0.0 0.0 0.0 -9.52822 -15.4405 9.43302 5.21278 -0.249486 -0.760559 42.2769 23.321 -5.32619 -34.9923 0.0 0.0 -0.0 0.0 -0.0 28.8547 14.0467 -3.19679 3.7691 0.17346 0.552193 -4.21041 -5.61655 -0.622602 -10.4075 0.0 0.0 0.0 0.0 0.0 
